{"title":"True Grit(1969)MPEG-4[DaScubaDude]","uid":15257754,"size":1384530701,"categoryP":"video","categoryS":"movies","magnet":"?xt=urn:btih:c70f2b25ced0b580a70e7dedbcbb937d930d3f83&amp;dn=True+Grit%281969%29MPEG-4%5BDaScubaDude%5D&amp;tr=udp%3A%2F%2Ftracker.leechers-paradise.org%3A6969&amp;tr=udp%3A%2F%2Fzer0day.ch%3A1337&amp;tr=udp%3A%2F%2Fopen.demonii.com%3A1337&amp;tr=udp%3A%2F%2Ftracker.coppersurfer.tk%3A6969&amp;tr=udp%3A%2F%2Fexodus.desync.com%3A6969","seeders":1,"leechers":0,"uploader":"dascuba","files":1,"time":1468145679,"description":"True Grit (1969)\r\nM | 2h 8min | Adventure, Western, Drama | 11 June 1969 (USA)\r\nA drunken, hard-nosed U.S. Marshal and a Texas Ranger help a stubborn teenager track down her father's murderer in Indian territory.\r\nDirector: Henry Hathaway\r\nWriters: Charles Portis (novel), Marguerite Roberts (screenplay)\r\nStars: John Wayne, Kim Darby, Glen Campbell |\r\n\r\nGeneral\r\nComplete name                            : True Grit 69'TRUEGRIT_Title1.mp4\r\nFormat                                   : MPEG-4\r\nFormat profile                           : Base Media\r\nCodec ID                                 : isom (isom/iso2/avc1/mp41)\r\nFile size                                : 1.29 GiB\r\nDuration                                 : 2h 7mn\r\nOverall bit rate                         : 1 443 Kbps\r\nMovie name                               : TRUEGRIT\r\nGenre                                    : Western\r\nWriting application                      : Lavf54.6.100\r\n\r\nVideo\r\nID                                       : 1\r\nFormat                                   : AVC\r\nFormat/Info                              : Advanced Video Codec\r\nFormat profile                           :   \r\nFormat settings, CABAC                   : No\r\nFormat settings, ReFrames                : 6 frames\r\nFormat settings, GOP                     : M=1, N=60\r\nCodec ID                                 : avc1\r\nCodec ID/Info                            : Advanced Video Coding\r\nDuration                                 : 2h 7mn\r\nBit rate                                 : 1 200 Kbps\r\nWidth                                    : 720 pixels\r\nHeight                                   : 404 pixels\r\nDisplay aspect ratio                     : 16:9\r\nFrame rate mode                          : Constant\r\nFrame rate                               : 29.970 (30000/1001) fps\r\nColor space                              : YUV\r\nChroma subsampling                       : 4:2:0\r\nBit depth                                : 8 bits\r\nScan type                                : Progressive\r\nBits/(Pixel*Frame)                       : 0.138\r\nStream size                              : 1.07 GiB (83%)\r\n\r\nAudio\r\nID                                       : 2\r\nFormat                                   : AAC\r\nFormat/Info                              : Advanced Audio Codec\r\nFormat profile                           : LC\r\nCodec ID                                 : 40\r\nDuration                                 : 2h 7mn\r\nBit rate mode                            : Constant\r\nBit rate                                 : 236 Kbps\r\nChannel(s)                               : 2 channels\r\nChannel(s)_Original                      : 6 channels\r\nChannel positions                        : Front: L C R, Side: L R, LFE\r\nSampling rate                            : 44.1 KHz\r\nFrame rate                               : 43.066 fps (1024 spf)\r\nCompression mode                         : Lossy\r\nStream size                              : 216 MiB (16%)\r\nDefault                                  : Yes\r\nAlternate group                          : 1","torrent":{"xt":"urn:btih:c70f2b25ced0b580a70e7dedbcbb937d930d3f83","amp;dn":"True+Grit%281969%29MPEG-4%5BDaScubaDude%5D","amp;tr":["udp%3A%2F%2Ftracker.leechers-paradise.org%3A6969","udp%3A%2F%2Fzer0day.ch%3A1337","udp%3A%2F%2Fopen.demonii.com%3A1337","udp%3A%2F%2Ftracker.coppersurfer.tk%3A6969","udp%3A%2F%2Fexodus.desync.com%3A6969"],"infoHash":"c70f2b25ced0b580a70e7dedbcbb937d930d3f83","infoHashBuffer":{"type":"Buffer","data":[199,15,43,37,206,208,181,128,167,14,125,237,188,187,147,125,147,13,63,131]},"announce":[],"urlList":[]}}